<svg width="887" height="800" viewBox="0 0 887 800" fill="none" xmlns="http://www.w3.org/2000/svg">
<path opacity="0.991" fill-rule="evenodd" clip-rule="evenodd" d="M367.596 52C418.175 52 468.754 52 519.332 52C519.047 53.9196 519.728 55.3921 521.374 56.4175C521.147 56.644 520.92 56.8706 520.693 57.0971C536.099 90.1497 550.955 123.338 565.261 156.661C565.488 156.435 565.715 156.208 565.942 155.981C583.597 197.252 601.969 238.482 621.057 279.671C635.958 314.362 651.382 348.796 667.326 382.973C669.107 388.313 671.148 393.524 673.45 398.604C673.904 399.51 674.357 399.51 674.811 398.604C675.626 402.35 676.76 405.975 678.213 409.478C678.474 409.856 678.814 410.082 679.234 410.158C687.166 428.717 695.444 447.067 704.069 465.207C705.212 468.386 706.346 471.558 707.471 474.721C708.907 475.085 709.247 475.764 708.492 476.76C711.982 483.503 715.271 490.299 718.358 497.148C719.093 498.89 719.433 500.702 719.379 502.585C720.06 502.585 720.74 502.585 721.42 502.585C722.24 506.023 723.26 509.421 724.482 512.78C747.052 562.159 769.391 611.545 791.505 660.936C803.48 689.198 816.184 717.515 829.609 745.888C829.609 746.568 829.609 747.247 829.609 747.927C776.76 747.927 723.915 747.927 671.068 747.927C669.577 742.891 667.876 737.909 665.965 732.975C663.588 729.029 661.547 724.952 659.841 720.742C659.388 718.93 658.934 717.118 658.48 715.305C650.83 699.565 643.912 683.481 637.727 667.052C646.753 655.184 654.578 642.497 661.202 628.994C661.656 622.877 661.656 616.761 661.202 610.644C654.309 603.544 646.711 597.428 638.408 592.295C636.613 590.781 634.912 589.196 633.305 587.537C633.078 587.764 632.851 587.991 632.624 588.217C632.093 587.382 631.752 586.476 631.603 585.499C632.898 579.351 634.486 573.348 636.366 567.489C646.738 566.053 657.058 565.034 667.326 564.43C669.014 563.298 670.941 562.732 673.11 562.731C676.042 559.744 678.877 556.686 681.615 553.557C682.283 535.148 682.057 516.798 680.935 498.508C678.423 495.719 675.814 493 673.11 490.352C667.929 489.425 662.713 488.745 657.46 488.314C656.003 488.237 654.755 487.783 653.717 486.954C649.84 487.308 646.097 487.308 642.49 486.954C640.359 486.687 638.317 486.121 636.366 485.255C634.196 478.943 632.721 472.487 631.944 465.886C634.324 463.928 636.592 461.889 638.748 459.77C638.975 459.996 639.202 460.223 639.428 460.449C641.634 458.752 643.676 456.94 645.552 455.012C645.779 455.239 646.006 455.466 646.233 455.692C651.574 451.724 656.564 447.194 661.202 442.1C661.656 436.209 661.656 430.32 661.202 424.43C656.04 413.866 650.37 403.672 644.191 393.847C640.563 389.995 636.933 386.145 633.305 382.293C627.181 383.199 621.057 383.199 614.933 382.293C612.847 383.702 610.693 385.061 608.469 386.371C608.07 386.229 607.73 386.002 607.448 385.691C603.362 387.88 599.167 389.919 594.86 391.808C594.461 391.666 594.121 391.439 593.84 391.128C592.468 392.502 590.881 393.635 589.076 394.526C584.546 390.114 580.123 385.583 575.808 380.934C579.739 372.605 583.481 364.223 587.035 355.788C587.489 349.219 587.489 342.649 587.035 336.079C584.2 333.248 581.365 330.416 578.53 327.584C568.08 320.777 557.193 314.661 545.869 309.235C539.745 308.781 533.621 308.781 527.497 309.235C524.662 312.067 521.827 314.898 518.992 317.73C514.222 324.549 509.459 331.345 504.703 338.118C503.074 338.551 501.373 338.551 499.6 338.118C497.216 331.761 494.835 325.418 492.455 319.089C480.206 290.914 467.958 261.691 455.712 231.419C455.485 231.645 455.258 231.872 455.032 232.098C453.7 226.317 451.546 220.88 448.567 215.787C448.71 215.389 448.937 215.049 449.248 214.768C447.369 210.869 445.554 207.358 443.804 204.234C443.243 203.632 442.563 203.406 441.763 203.554C434.629 221.805 427.144 239.701 419.309 257.244C408.578 283.154 397.577 309.659 386.308 336.759C385.315 338.601 383.954 339.053 382.225 338.118C377.907 332 373.598 325.884 369.297 319.769C366.258 316.053 362.969 312.541 359.431 309.235C353.307 308.781 347.183 308.781 341.059 309.235C330.015 314.538 319.128 320.654 308.399 327.584C305.791 330.643 302.955 333.475 299.893 336.079C299.439 342.649 299.439 349.219 299.893 355.788C303.257 364.322 307 372.704 311.12 380.934C306.811 385.691 302.275 390.222 297.512 394.526C292.736 391.385 287.293 389.006 281.181 387.391C280.387 387.051 279.821 386.485 279.48 385.691C279.199 386.002 278.858 386.229 278.46 386.371C276.019 385.437 273.865 384.078 271.996 382.293C265.872 383.199 259.748 383.199 253.624 382.293C249.998 386.594 246.143 390.672 242.057 394.526C241.324 396.666 240.417 398.705 239.335 400.643C237.739 402.012 236.378 403.597 235.252 405.4C232.51 411.545 229.448 417.548 226.066 423.41C225.3 429.616 225.187 435.846 225.726 442.1C228.914 444.717 231.749 447.662 234.232 450.935C238.299 452.681 241.475 455.059 243.758 458.071C248.026 460.527 251.882 463.472 255.325 466.906C253.9 473.134 252.313 479.251 250.562 485.255C238.608 487.362 226.36 488.948 213.819 490.013C211.26 492.992 208.538 495.823 205.654 498.508C204.866 517.055 204.753 535.631 205.313 554.236C208.167 557.087 211.002 559.918 213.819 562.731C215.987 562.732 217.915 563.298 219.602 564.43C229.871 565.034 240.19 566.053 250.562 567.489C252.053 573.601 253.641 579.717 255.325 585.838C255.079 586.671 254.738 587.463 254.304 588.217C254.078 587.991 253.851 587.764 253.624 587.537C250.58 590.797 247.065 593.402 243.077 595.353C241.88 596.972 240.52 598.444 238.995 599.771C233.898 602.474 229.475 606.098 225.726 610.644C225.272 616.761 225.272 622.877 225.726 628.994C231.999 641.955 239.37 654.188 247.84 665.693C236.366 693.245 224.799 720.656 213.138 747.927C161.426 747.927 109.713 747.927 58 747.927C58 747.471 58 747.023 58 746.568C64.6855 731.91 71.4898 716.731 78.4129 701.033C96.17 661.005 114.088 620.907 132.167 580.741C163.227 511.416 194.074 442.322 224.706 373.458C223.951 372.294 224.405 371.84 226.066 372.099C226.074 370.708 226.301 369.349 226.747 368.021C230.601 360.2 234.117 352.725 237.294 345.594C238.944 341.851 240.192 338 241.036 334.041C241.716 334.041 242.397 334.041 243.077 334.041C243.085 332.649 243.311 331.29 243.758 329.963C285.368 237.961 326.648 145.307 367.596 52ZM432.237 395.886C445.947 395.353 459.556 396.259 473.063 398.604C474.251 398.924 475.385 399.378 476.465 399.963C477.106 399.89 477.673 399.664 478.166 399.284C478.43 399.914 478.884 400.368 479.527 400.643C499.08 405.935 516.204 415.563 530.9 429.527C531.807 429.98 532.714 430.433 533.621 430.886C569.017 466.348 581.378 508.824 570.705 558.314C566.62 573.318 560.496 587.363 552.333 600.45C546.016 608.348 539.438 616.05 532.601 623.557C532.374 623.331 532.147 623.104 531.92 622.877C528.93 625.864 525.981 628.809 523.075 631.712C521.515 630.964 520.494 631.53 520.013 633.411C516.695 635.507 513.406 637.659 510.146 639.868C509.92 639.642 509.693 639.415 509.466 639.188C496.328 647.749 481.358 653.186 464.558 655.499C463.429 655.618 462.522 656.071 461.836 656.858C449.588 657.764 437.34 657.764 425.093 656.858C381.648 649.014 348.988 626.133 327.111 588.217C307.607 547.18 307.607 506.176 327.111 465.207C339.507 442.181 356.858 424.625 379.163 412.536C379.528 411.103 380.208 410.763 381.205 411.517C383.775 409.679 386.496 408.093 389.37 406.76C402.74 401.027 417.029 397.403 432.237 395.886Z" fill="white"/>
<path opacity="0.982" fill-rule="evenodd" clip-rule="evenodd" d="M430.876 306.176C441.546 306.072 452.206 306.299 462.857 306.856C463.107 312.645 463.561 318.422 464.217 324.186C464.285 325.751 464.739 327.11 465.578 328.264C464.532 330.545 464.76 332.697 466.259 334.72C465.887 335.585 465.661 336.491 465.578 337.439C466.551 342.159 467.344 346.916 467.96 351.711C468.242 351.4 468.582 351.173 468.98 351.031C476.518 352.176 484.002 353.649 491.435 355.449C493.143 356.189 494.844 356.982 496.538 357.827C497.487 356.933 498.168 357.16 498.579 358.507C498.861 358.196 499.201 357.969 499.6 357.827C502.472 359.123 505.307 360.482 508.105 361.905C509.212 361.664 510.459 361.664 511.848 361.905C511.696 360.128 512.49 358.995 514.229 358.507C520.708 348.185 527.966 338.444 536.003 329.283C536.332 328.639 536.445 327.959 536.343 327.244C541.989 328.988 547.093 331.706 551.653 335.4C551.935 335.089 552.275 334.862 552.673 334.72C554.466 336.402 556.507 337.647 558.797 338.458C559.161 339.891 559.842 340.231 560.839 339.478C563.27 341.958 565.878 343.771 568.664 344.914C569.117 346.047 569.117 347.18 568.664 348.313C563.282 360.684 557.952 373.143 552.673 385.691C553.076 386.892 553.642 388.025 554.375 389.09C554.601 388.863 554.828 388.636 555.055 388.41C565.063 397.057 574.362 406.798 582.953 417.633C589.872 415.518 596.563 412.799 603.025 409.478C603.424 409.62 603.764 409.847 604.046 410.158C606.973 407.832 609.921 406.019 612.892 404.721C613.684 404.493 614.591 404.493 615.613 404.721C615.829 403.497 616.283 403.27 616.974 404.041C619.319 402.92 621.7 401.787 624.119 400.643C628.765 406.807 632.621 413.377 635.686 420.352C636.366 420.352 637.047 420.352 637.727 420.352C639.177 425.056 640.992 429.587 643.171 433.944C641.123 433.892 639.649 434.798 638.748 436.663C638.521 436.436 638.294 436.209 638.068 435.983C637.751 436.956 637.184 437.748 636.366 438.362C629.817 442.865 623.467 447.622 617.314 452.634C616.669 453.053 616.102 452.94 615.613 452.294C614.933 453.427 614.252 454.559 613.572 455.692C613.345 455.466 613.118 455.239 612.892 455.012C611.985 455.918 611.077 456.825 610.17 457.731C609.943 457.504 609.716 457.277 609.489 457.051C609.057 458.047 608.49 458.954 607.788 459.77C613.586 473.424 617.216 487.47 618.675 501.906C633.383 504.236 648.352 506.048 663.584 507.343C663.911 513.679 664.138 520.022 664.264 526.372C664.358 532.905 663.904 539.361 662.903 545.741C660.709 545.466 658.554 545.353 656.439 545.401C656.099 545.741 655.759 546.081 655.419 546.421C643.083 547.471 630.835 549.057 618.675 551.178C617.352 565.56 613.723 579.492 607.788 592.974C608.185 593.995 608.752 594.901 609.489 595.693C609.716 595.467 609.943 595.24 610.17 595.013C612.191 596.753 614.119 598.566 615.954 600.45C616.352 600.308 616.693 600.081 616.974 599.771C617.655 600.903 618.335 602.036 619.016 603.169C620.575 602.42 621.596 602.986 622.077 604.868C625.776 606.546 628.838 608.925 631.263 612.004C631.545 611.693 631.885 611.466 632.284 611.324C635.534 614.802 639.162 617.748 643.171 620.159C637.63 631.546 631.506 642.193 624.799 652.101C623.731 652.233 622.71 652.233 621.737 652.101C621.522 650.877 621.068 650.651 620.376 651.421C618.752 650.286 617.164 649.153 615.613 648.023C615.332 648.334 614.991 648.561 614.593 648.703C605.071 644.425 595.886 640.121 587.035 635.79C585.646 636.006 584.171 636.12 582.612 636.13C581.564 637.203 580.77 638.45 580.231 639.868C578.127 640.835 576.766 642.421 576.148 644.625C571.272 648.589 566.849 653.007 562.88 657.878C559.738 659.883 556.789 662.148 554.034 664.674C553.102 665.653 552.422 666.786 551.993 668.072C553.896 672.384 556.051 676.575 558.457 680.645C561.808 689.61 565.551 698.445 569.684 707.15C566.496 709.647 563.094 711.8 559.478 713.606C559.052 714.116 558.712 714.683 558.457 715.305C557.665 715.533 556.758 715.533 555.735 715.305C555.481 715.928 555.141 716.495 554.715 717.004C548.915 720.241 543.018 723.299 537.024 726.179C531.181 717.729 525.17 709.347 518.992 701.033C516.783 698.364 514.515 695.645 512.188 692.878C511.859 692.234 511.746 691.554 511.848 690.839C506.97 692.01 502.207 693.596 497.559 695.596C497.16 695.454 496.82 695.227 496.538 694.917C494.849 695.533 493.035 696.439 491.094 697.635C483.563 699.55 475.966 701.135 468.3 702.393C467.219 706.859 466.311 711.164 465.578 715.305C465.933 716.681 466.046 718.04 465.919 719.383C465.692 719.157 465.465 718.93 465.238 718.703C464.174 727.973 463.38 737.264 462.857 746.568C449.928 747.471 437 747.471 424.072 746.568C423.686 739.534 423.119 732.513 422.371 725.5C421.926 726.312 421.586 726.312 421.35 725.5C421.743 724.408 421.969 723.276 422.031 722.101C421.26 715.446 420.126 708.876 418.629 702.393C404.54 700.43 390.931 696.692 377.803 691.179C376.896 690.726 375.988 690.726 375.081 691.179C366.94 703.021 358.549 714.688 349.905 726.179C347.432 725.268 345.505 724.135 344.121 722.781C343.895 723.007 343.667 723.234 343.441 723.461C335.147 718.579 326.868 713.595 318.605 708.509C317.935 707.423 317.822 706.29 318.265 705.111C324.006 692.595 329.336 679.909 334.255 667.053C334.235 666.013 333.782 665.22 332.894 664.674C331.014 663.48 329.313 662.008 327.791 660.256C327.509 660.567 327.169 660.794 326.77 660.936C321.804 654.729 316.247 649.066 310.1 643.946C307.994 641.557 306.066 638.952 304.316 636.13C302.757 636.12 301.283 636.006 299.893 635.79C294.381 638.71 289.051 641.429 283.903 643.946C279.996 644.809 276.14 646.395 272.336 648.703C271.937 648.561 271.597 648.334 271.315 648.023C269.087 649.378 266.819 650.737 264.511 652.101C263.626 652.748 262.832 652.748 262.129 652.101C255.378 641.867 249.254 631.22 243.758 620.159C247.559 618.002 251.188 615.056 254.645 611.324C255.043 611.466 255.384 611.693 255.665 612.004C255.982 611.031 256.549 610.239 257.366 609.625C264.208 604.785 270.899 599.688 277.439 594.334C277.666 594.56 277.893 594.787 278.12 595.013C278.431 592.935 278.204 590.896 277.439 588.897C275.447 584.512 273.859 579.981 272.676 575.304C270.516 566.903 268.475 558.521 266.552 550.159C266.17 550.513 265.717 550.74 265.191 550.838C251.309 548.661 237.474 546.85 223.685 545.401C222.448 532.729 222.335 520.043 223.345 507.343C238.052 505.95 252.681 504.138 267.233 501.906C269.921 487.537 273.663 473.492 278.46 459.77C277.47 458.44 276.337 457.194 275.058 456.032C271.926 454.418 268.977 452.492 266.212 450.255C265.872 449.575 265.532 448.896 265.191 448.216C264.965 448.442 264.737 448.669 264.511 448.896C262.614 447.025 260.686 445.214 258.727 443.459C258.329 443.601 257.988 443.828 257.707 444.138C255.946 442.326 254.132 440.514 252.263 438.701C252.037 438.928 251.809 439.155 251.583 439.381C250.417 438.445 249.509 437.312 248.861 435.983C248.634 436.209 248.407 436.436 248.181 436.663C247.26 435.857 246.466 434.951 245.799 433.944C244.063 434.583 243.495 433.903 244.098 431.905C249.63 420.855 255.867 410.208 262.81 399.963C263.639 400.742 264.546 401.422 265.532 402.002C269.59 403.618 273.56 405.43 277.439 407.439C277.666 407.213 277.893 406.986 278.12 406.76C281.75 409.095 285.492 410.682 289.347 411.517C292.844 413.396 296.36 415.209 299.893 416.954C301.505 417.074 303.206 416.848 304.997 416.274C313.072 406.28 322.03 396.992 331.874 388.41C332.1 388.636 332.327 388.863 332.554 389.09C333.286 388.025 333.853 386.892 334.255 385.691C329.067 372.238 323.397 358.986 317.244 345.934C320.353 343.962 323.302 341.81 326.09 339.478C326.489 339.62 326.829 339.847 327.111 340.157C327.869 338.809 328.889 337.677 330.173 336.759C330.571 336.901 330.911 337.128 331.193 337.439C336.892 333.17 343.356 329.772 350.585 327.244C350.484 327.959 350.597 328.639 350.926 329.283C359.109 339.982 367.161 350.742 375.081 361.565C378.728 361.446 382.13 360.427 385.287 358.507C386.173 359.171 386.967 358.945 387.669 357.827C397.454 355.02 407.547 352.755 417.948 351.031C418.347 351.173 418.687 351.4 418.969 351.711C420.922 336.221 422.623 321.269 424.072 306.856C426.482 307.069 428.75 306.842 430.876 306.176ZM432.237 395.886C417.03 397.403 402.74 401.027 389.37 406.76C386.497 408.093 383.775 409.678 381.205 411.517C380.208 410.763 379.528 411.103 379.164 412.536C356.858 424.625 339.507 442.181 327.111 465.207C307.607 506.176 307.607 547.18 327.111 588.217C348.988 626.134 381.648 649.014 425.093 656.858C437.34 657.764 449.588 657.764 461.836 656.858C462.522 656.071 463.429 655.618 464.558 655.499C481.358 653.186 496.328 647.749 509.466 639.188C509.693 639.415 509.92 639.642 510.147 639.868C513.406 637.659 516.695 635.507 520.013 633.412C520.495 631.53 521.515 630.964 523.075 631.712C525.982 628.809 528.931 625.864 531.92 622.877C532.147 623.104 532.374 623.331 532.601 623.557C539.438 616.05 546.016 608.348 552.333 600.45C560.496 587.363 566.62 573.318 570.705 558.314C581.378 508.824 569.017 466.348 533.621 430.886C532.714 430.433 531.807 429.98 530.9 429.527C516.204 415.563 499.08 405.934 479.527 400.643C478.884 400.368 478.43 399.914 478.166 399.284C477.673 399.664 477.106 399.89 476.465 399.963C475.385 399.378 474.251 398.924 473.063 398.604C459.556 396.259 445.947 395.353 432.237 395.886Z" fill="white"/>
<rect width="887" height="800" stroke="white"/>
</svg>
