<svg width="714" height="109" viewBox="0 0 714 109" fill="none" xmlns="http://www.w3.org/2000/svg">
<g clip-path="url(#clip0_227_15986)">
<path opacity="0.984" fill-rule="evenodd" clip-rule="evenodd" d="M47.9291 -0.0532227C55.9615 -0.0532227 63.9938 -0.0532227 72.0263 -0.0532227C88.0382 35.9846 104.05 71.9979 120.062 107.987C120.115 108.305 120.132 108.625 120.115 108.947C111.799 108.947 103.484 108.947 95.1681 108.947C93.4228 104.734 91.689 100.521 89.9665 96.3083C90.2266 95.94 90.5273 95.6023 90.8688 95.2951C91.8867 93.7608 92.8067 92.161 93.6289 90.4957C93.797 89.5083 93.8324 88.5129 93.735 87.5094C93.3281 87.1006 92.9211 86.6917 92.5143 86.2829C91.5926 85.7144 90.7257 85.0567 89.9134 84.3098C89.8781 84.3453 89.8426 84.3809 89.8073 84.4165C89.6969 84.1455 89.5022 83.9678 89.2234 83.8832C89.168 83.7651 89.1327 83.6406 89.1173 83.5099C89.3286 82.5617 89.5587 81.6197 89.8073 80.6836C89.9254 80.4383 90.0847 80.4027 90.285 80.5769C90.5201 80.4656 90.7678 80.3945 91.0281 80.3636C92.552 80.226 94.0736 80.066 95.5928 79.8837C96.1145 79.431 96.5567 78.9156 96.9197 78.3372C97.0239 75.5194 96.9885 72.7108 96.8135 69.9116C96.4066 69.5028 95.9996 69.0938 95.5928 68.685C95.2203 68.6873 94.8842 68.5984 94.5843 68.4184C94.4357 68.4841 94.2764 68.5196 94.1066 68.5251C92.6911 68.2977 91.2757 68.0844 89.8604 67.8851C89.5646 66.9457 89.317 65.9858 89.1173 65.0055C89.1301 64.8568 89.1655 64.7145 89.2234 64.5789C90.8556 63.5645 92.3594 62.3557 93.735 60.9526C93.8058 60.0639 93.8058 59.1751 93.735 58.2863C92.9138 56.5285 91.9584 54.8576 90.8688 53.2736C90.3734 52.7758 89.8781 52.2782 89.3827 51.7804C88.5189 51.9213 87.652 51.9213 86.7819 51.7804C85.4537 52.4866 84.0736 53.091 82.6418 53.5936C81.9069 53.0157 81.2169 52.3758 80.5718 51.6738C80.5204 51.4164 80.5559 51.1676 80.6779 50.9272C81.2039 49.7225 81.6994 48.5493 82.1641 47.4076C82.2349 46.4478 82.2349 45.4879 82.1641 44.528C80.9873 43.2538 79.6249 42.2584 78.0771 41.5417C77.9887 41.435 77.9002 41.3284 77.8118 41.2217C77.7764 41.2572 77.7409 41.2929 77.7056 41.3284C77.0394 40.9865 76.4202 40.6488 75.8479 40.3152C74.9633 40.244 74.0786 40.244 73.194 40.3152C71.8061 41.7149 70.5676 43.2437 69.4786 44.9013C69.1493 44.9384 68.8308 44.8851 68.5232 44.7413C65.5653 37.8331 62.6813 30.9006 59.8715 23.9438C57.0053 30.8763 54.1391 37.8088 51.2729 44.7413C50.9934 44.9183 50.6927 44.9717 50.3706 44.9013C49.5337 43.8046 48.7375 42.6847 47.9821 41.5417C47.5752 41.1329 47.1682 40.724 46.7613 40.3152C45.8768 40.244 44.9921 40.244 44.1075 40.3152C42.4285 41.1279 40.73 42.0878 39.012 43.1948C38.5697 43.6392 38.1274 44.0836 37.6851 44.528C37.6143 45.4879 37.6143 46.4478 37.6851 47.4076C38.2976 48.748 38.8814 50.0989 39.4366 51.4605C39.2603 51.6562 39.1011 51.8695 38.9589 52.1004C38.4691 52.57 37.9914 53.0499 37.5258 53.5402C37.4374 53.558 37.3489 53.5757 37.2605 53.5936C36.5726 53.4205 35.8826 53.1538 35.1904 52.7936C35.0665 52.7403 34.9781 52.6515 34.925 52.527C34.8811 52.5758 34.828 52.6114 34.7658 52.6337C34.2061 52.3569 33.6576 52.0725 33.1204 51.7804C32.2358 51.9226 31.3511 51.9226 30.4665 51.7804C29.4329 52.7677 28.5483 53.8698 27.8126 55.0867C27.2622 56.1401 26.7315 57.2067 26.2203 58.2863C26.1495 59.2107 26.1495 60.1349 26.2203 61.0593C26.6272 61.4681 27.0342 61.877 27.4411 62.2858C28.5144 63.1014 29.576 63.848 30.6258 64.5255C30.7642 64.6113 30.835 64.7358 30.8381 64.8988C30.4918 65.8285 30.2618 66.7884 30.1481 67.7785C30.095 67.8318 30.0419 67.8851 29.9888 67.9385C28.0703 68.1329 26.1595 68.3817 24.2564 68.685C23.8496 69.0938 23.4426 69.5028 23.0357 69.9116C22.9649 72.7912 22.9649 75.6709 23.0357 78.5505C23.478 78.9949 23.9202 79.4392 24.3626 79.8837C25.5098 80.0327 26.6599 80.1571 27.8126 80.257C28.057 80.2676 28.2693 80.3388 28.4496 80.4703C28.8572 80.3126 29.2464 80.3481 29.6173 80.5769C29.8302 80.4167 30.0071 80.4522 30.1481 80.6836C30.2508 81.6812 30.4809 82.6411 30.8381 83.5632C30.835 83.7263 30.7642 83.8508 30.6258 83.9365C29.0368 84.9627 27.5683 86.1537 26.2203 87.5094C26.1495 88.4338 26.1495 89.358 26.2203 90.2824C27.1105 92.3921 28.2959 94.3119 29.7765 96.0417C27.9987 100.36 26.1941 104.662 24.3626 108.947C16.224 108.947 8.08547 108.947 -0.0531006 108.947C-0.0531006 108.662 -0.0531006 108.378 -0.0531006 108.094C15.9195 72.0394 31.9135 35.9905 47.9291 -0.0532227ZM74.8925 60.4194C78.858 64.7282 80.6273 69.812 80.2002 75.6709C79.7762 81.088 77.653 85.6208 73.8309 89.2692C73.7302 89.335 73.6418 89.3173 73.5655 89.2159C73.402 89.5945 73.1543 89.9144 72.8225 90.1757C72.7871 90.1402 72.7516 90.1046 72.7163 90.0691C72.5011 90.3114 72.2711 90.5425 72.0263 90.7623C71.8925 90.881 71.7687 90.8989 71.6547 90.8157C71.6035 90.9168 71.5859 91.0234 71.6017 91.1356C70.2238 91.9337 68.8438 92.6626 67.4616 93.322C67.0751 93.4574 66.6858 93.5818 66.2939 93.6953C66.2231 93.6598 66.1524 93.6242 66.0816 93.5887C65.8798 93.8985 65.6144 94.0051 65.2854 93.9086C64.902 94.2298 64.5128 94.2653 64.1177 94.0153C64.0665 94.1164 64.0488 94.223 64.0647 94.3352C63.8776 94.3505 63.7006 94.3149 63.5339 94.2286C63.2942 94.5774 63.0288 94.613 62.7377 94.3352C62.4033 94.658 62.0142 94.7291 61.57 94.5485C61.054 94.6822 60.5232 94.7532 59.9777 94.7618C59.4321 94.7532 58.9014 94.6822 58.3853 94.5485C58.0219 94.6378 57.6681 94.6733 57.3238 94.6552C57.2974 94.5353 57.2443 94.4287 57.1646 94.3352C56.873 94.6265 56.6253 94.591 56.4215 94.2286C55.7744 94.3226 55.155 94.216 54.5638 93.9086C54.4818 93.9241 54.411 93.9596 54.3514 94.0153C54.2897 93.6774 54.1835 93.6419 54.033 93.9086C53.8179 93.7383 53.5703 93.6316 53.2899 93.5887C53.1733 93.4944 53.1203 93.3877 53.1307 93.2687C53.0599 93.3398 52.9892 93.4109 52.9184 93.482C51.4098 92.885 50.0298 92.1739 48.7783 91.3489C42.8995 87.313 39.821 81.6071 39.5428 74.231C39.5591 73.3577 39.6122 72.4867 39.702 71.618C39.7427 71.5587 39.7958 71.5232 39.8613 71.5114C39.9837 69.8466 40.3552 68.2468 40.9759 66.7119C42.6306 62.8915 45.0014 59.8341 48.0883 57.5397C48.2808 57.658 48.3692 57.5869 48.3537 57.3264C48.7049 57.2473 49.0058 57.0695 49.256 56.7932C49.4513 56.9353 49.5044 56.9175 49.4152 56.7398C49.6738 56.6224 49.9039 56.4624 50.1052 56.2599C50.1492 56.3086 50.2023 56.3443 50.2645 56.3665C51.0897 55.8127 51.9567 55.3506 52.8653 54.98C53.0936 55.2586 53.1821 55.2586 53.1307 54.98C53.4052 54.7725 53.6528 54.7725 53.8737 54.98C54.0023 54.8975 54.0023 54.8087 53.8737 54.7134C54.5892 54.4359 55.3323 54.2403 56.103 54.1268C56.3595 54.233 56.6071 54.1974 56.8461 54.0202C56.9941 54.0331 57.1357 54.0686 57.2707 54.1268C57.3977 54.0899 57.3977 54.0366 57.2707 53.9668C57.6661 53.8858 58.0554 53.9036 58.4384 54.0202C58.5466 53.8936 58.6705 53.7869 58.81 53.7002C59.5676 53.841 60.3283 53.841 61.0923 53.7002C61.216 53.8059 61.3399 53.9126 61.4638 54.0202C61.8661 53.9069 62.2731 53.8891 62.6846 53.9668C62.5296 54.0533 62.4943 54.1423 62.5785 54.2335C62.722 54.0846 62.899 54.0134 63.1093 54.0202C63.4243 54.0908 63.7428 54.1263 64.0647 54.1268C64.0805 54.5132 64.2044 54.5488 64.4362 54.2335C64.9709 54.4398 65.5194 54.5998 66.0816 54.7134C65.953 54.8087 65.953 54.8975 66.0816 54.98C66.1524 54.9089 66.2231 54.8379 66.2939 54.7667C66.7136 54.8833 67.1028 55.0611 67.4616 55.3C67.5238 55.2777 67.5769 55.2421 67.6208 55.1934C67.8746 55.3803 68.1399 55.5581 68.417 55.7266C68.4792 55.7043 68.5323 55.6687 68.5762 55.62C68.7795 55.8736 69.0449 56.0336 69.3724 56.0999C69.2832 56.2776 69.3363 56.2954 69.5316 56.1532C70.4917 56.8096 71.5002 57.4673 72.5571 58.1263C72.9971 58.4888 73.3864 58.8978 73.7248 59.3528C73.787 59.3306 73.8401 59.2949 73.884 59.2462C74.2731 59.6085 74.6093 59.9995 74.8925 60.4194Z" fill="white"/>
<path opacity="0.994" fill-rule="evenodd" clip-rule="evenodd" d="M209.497 82.6032C209.718 83.0797 210.019 83.5063 210.4 83.883C211.597 85.6401 212.783 87.4176 213.956 89.2157C215.143 90.8053 216.31 92.4051 217.459 94.0151C217.481 94.1668 217.534 94.309 217.618 94.4417C221.066 99.2509 224.445 104.086 227.756 108.947C219.086 108.947 210.418 108.947 201.748 108.947C201.317 108.288 200.91 107.612 200.527 106.92C200.492 106.955 200.456 106.992 200.421 107.027C193.959 97.5189 187.431 88.0623 180.835 78.657C180.756 78.5252 180.721 78.3829 180.729 78.2304C172.59 78.2304 164.453 78.2304 156.314 78.2304C156.314 88.4691 156.314 98.7079 156.314 108.947C148.423 108.947 140.532 108.947 132.641 108.947C132.641 92.3087 132.641 75.6707 132.641 59.0327C148.818 59.0313 164.99 59.0313 181.154 59.0327C183.102 58.7629 185.031 58.4074 186.939 57.9662C189.085 57.4525 191.102 56.6347 192.99 55.5132C193.025 55.5487 193.061 55.5843 193.096 55.6198C194.698 54.4979 196.184 53.2536 197.555 51.887C198.155 50.9677 198.757 50.0433 199.36 49.114C200.883 46.0701 201.608 42.8349 201.536 39.4085C201.657 34.2864 200.047 29.8425 196.706 26.0768C196.031 25.5444 195.394 24.9756 194.795 24.3703C194.76 24.4058 194.724 24.4415 194.689 24.477C193.168 23.2569 191.469 22.3681 189.593 21.8106C189.464 21.7283 189.358 21.6216 189.275 21.4907C189.215 21.5463 189.144 21.5819 189.062 21.5973C186.926 20.8476 184.713 20.3676 182.428 20.1575C182.316 19.9934 182.175 19.9757 182.003 20.1042C181.263 20.0229 180.52 19.9696 179.774 19.9442C164.063 19.8909 148.352 19.8731 132.641 19.8909C132.641 13.2783 132.641 6.66582 132.641 0.0532967C149.803 0.0355211 166.964 0.0532968 184.126 0.106623C184.212 0.139432 184.282 0.192759 184.339 0.266604C190.303 0.692862 196.036 1.88382 201.536 3.8395C202.638 4.28486 203.77 4.78258 204.933 5.33265C217.227 11.3833 224.11 21.3554 225.58 35.249C225.919 40.0742 225.6 44.838 224.624 49.5406C223.639 53.4003 222.1 57.0088 220.007 60.3659C215.824 66.4108 210.322 70.8725 203.5 73.7509C203.417 73.905 203.435 74.0471 203.553 74.1776C205.542 76.998 207.523 79.8065 209.497 82.6032Z" fill="white"/>
<path opacity="0.992" fill-rule="evenodd" clip-rule="evenodd" d="M351.851 108.947C343.536 108.947 335.22 108.947 326.905 108.947C315.138 80.7334 303.391 52.5058 291.661 24.2636C291.555 24.2636 291.449 24.2636 291.343 24.2636C288.753 30.7602 286.046 37.2305 283.222 43.6746C281.717 47.4072 280.196 51.1401 278.657 54.8732C278.223 55.6489 277.887 56.4665 277.649 57.3262C277.236 58.3706 276.758 59.4016 276.216 60.4192C276.177 60.6536 276.124 60.8847 276.057 61.1124C271.236 72.455 266.477 83.8492 261.779 95.2949C260.092 99.1578 258.43 103.033 256.789 106.92C256.529 107.589 256.299 108.264 256.099 108.947C247.89 108.947 239.68 108.947 231.471 108.947C247.647 72.6147 263.748 36.3168 279.772 0.0532227C287.663 0.0532227 295.554 0.0532227 303.445 0.0532227C319.637 36.3879 335.772 72.6856 351.851 108.947Z" fill="white"/>
<path opacity="0.99" fill-rule="evenodd" clip-rule="evenodd" d="M462.253 108.947C455.636 108.947 449.019 108.947 442.402 108.947C442.309 108.69 442.184 108.441 442.03 108.2C440.494 106.48 439.043 104.703 437.678 102.867C437.24 102.569 436.921 102.178 436.723 101.694C436.492 101.534 436.298 101.339 436.139 101.108C436.038 101.056 435.932 101.038 435.82 101.054C435.851 100.864 435.815 100.686 435.714 100.521C426.624 89.4317 417.566 78.3041 408.538 67.1384C407.699 66.4933 407.026 65.7111 406.521 64.792C406.272 64.5235 406.007 64.2747 405.725 64.0454C405.439 63.616 405.155 63.1894 404.876 62.7656C404.437 62.4672 404.118 62.0761 403.921 61.5924C400.801 57.9421 397.775 54.2093 394.844 50.3937C394.667 50.2516 394.491 50.1093 394.314 49.9671C393.715 49.1523 393.078 48.3702 392.403 47.6207C392.425 47.5582 392.46 47.5049 392.509 47.4608C392.053 47.1278 391.699 46.719 391.447 46.2342C391.266 46.0163 391.054 45.8386 390.811 45.701C390.728 45.5699 390.675 45.4277 390.651 45.2744C390.335 45.0094 390.033 44.7251 389.749 44.4211C389.771 44.3586 389.806 44.3053 389.855 44.2612C389.289 43.574 388.687 42.9162 388.05 42.2881C388.073 42.2256 388.108 42.1722 388.157 42.1281C387.69 41.7913 387.371 41.418 387.201 41.0082C387.055 40.8255 386.879 40.6832 386.67 40.5816C386.473 40.0978 386.155 39.7067 385.715 39.4084C385.632 39.2773 385.579 39.1352 385.556 38.9818C384.25 37.4029 382.923 35.8386 381.575 34.289C379.877 32.1204 378.178 29.9518 376.48 27.7832C375.421 26.4222 374.289 25.1068 373.083 23.837C373.105 23.7745 373.14 23.7212 373.189 23.677C372.613 23.0901 372.048 22.5035 371.49 21.9172C371.2 21.4444 370.9 20.9823 370.588 20.5307C370.148 20.2324 369.83 19.8413 369.633 19.3575C369.269 19.1173 369.004 18.7974 368.836 18.3976C368.587 18.1648 368.357 17.916 368.146 17.6511C368.111 17.6866 368.075 17.7222 368.04 17.7577C367.996 17.304 367.765 16.9841 367.35 16.7978C367.267 16.6668 367.214 16.5246 367.191 16.3712C366.043 14.9378 364.858 13.5335 363.635 12.1584C363.688 12.1051 363.741 12.0518 363.794 11.9984C363.847 8.01686 363.865 4.03511 363.847 0.0532227C370.429 0.0532227 377.01 0.0532227 383.592 0.0532227C383.812 0.638335 384.165 1.13606 384.653 1.54637C384.736 1.67742 384.789 1.81962 384.813 1.97299C384.856 1.9242 384.909 1.88866 384.972 1.86633C385.383 2.63373 385.86 3.34476 386.405 3.99941C386.997 4.62536 387.581 5.26528 388.157 5.91917C388.134 5.98167 388.099 6.035 388.05 6.07915C388.539 6.37616 388.893 6.785 389.112 7.30567C389.324 7.48343 389.537 7.66118 389.749 7.83894C390.039 8.31175 390.339 8.77392 390.651 9.22543C390.933 9.45473 391.198 9.70358 391.447 9.97201C391.766 10.4342 392.084 10.8964 392.403 11.3585C392.619 11.6117 392.867 11.825 393.146 11.9984C393.229 12.1295 393.282 12.2717 393.305 12.425C393.762 13.0386 394.274 13.6075 394.844 14.1315C395.163 14.5768 395.463 15.039 395.747 15.518C396.028 15.7473 396.293 15.9961 396.543 16.2646C397.649 17.7394 398.782 19.1969 399.94 20.6374C401.409 22.2892 402.789 23.9957 404.08 25.7567C404.237 25.9246 404.414 26.0668 404.611 26.1834C405.925 27.7882 407.199 29.4235 408.432 31.0894C408.7 31.2775 408.947 31.4908 409.175 31.7293C409.153 31.7918 409.118 31.8452 409.069 31.8893C409.698 32.5193 410.3 33.177 410.874 33.8624C410.852 33.9249 410.817 33.9782 410.768 34.0224C411.343 34.6093 411.909 35.1959 412.466 35.7822C412.75 36.2612 413.05 36.7234 413.368 37.1687C413.808 37.467 414.126 37.8581 414.324 38.3419C415.102 39.2306 415.881 40.1195 416.659 41.0082C417.509 42.163 418.375 43.3005 419.26 44.4211C420.074 45.3455 420.887 46.2698 421.702 47.1941C421.982 47.6881 422.3 48.1503 422.657 48.5806C424.206 50.477 425.78 52.3613 427.381 54.2333C427.68 54.7323 428.052 55.1767 428.496 55.5664C428.461 55.6019 428.424 55.6376 428.389 55.6731C429.018 56.3031 429.62 56.9607 430.194 57.6462C430.172 57.7087 430.137 57.762 430.088 57.8062C430.663 58.3931 431.229 58.9797 431.786 59.5659C431.869 59.697 431.922 59.8392 431.946 59.9926C433.244 61.5472 434.553 63.1115 435.873 64.6853C436.107 65.1521 436.443 65.5431 436.882 65.8585C437.007 66.2698 437.256 66.5897 437.625 66.8184C437.94 67.2781 438.259 67.7403 438.58 68.2049C441.747 71.9 444.807 75.6684 447.763 79.5102C448.355 80.1361 448.939 80.776 449.514 81.4299C449.492 81.4924 449.457 81.5458 449.408 81.5899C450.051 82.1153 450.617 82.7019 451.107 83.3497C451.396 83.8225 451.697 84.2846 452.009 84.7362C452.29 84.9655 452.556 85.2143 452.805 85.4828C453.39 86.3731 454.027 87.2263 454.716 88.0425C454.862 88.2252 455.039 88.3674 455.247 88.4691C455.444 88.9529 455.763 89.344 456.202 89.6423C456.492 90.1151 456.792 90.5772 457.104 91.0288C458.856 93.1251 460.608 95.2227 462.359 97.3213C462.254 101.192 462.218 105.067 462.253 108.947Z" fill="white"/>
<path opacity="0.985" fill-rule="evenodd" clip-rule="evenodd" d="M438.58 0.0532227C446.471 0.0532227 454.362 0.0532227 462.253 0.0532227C462.253 20.3885 462.253 40.7238 462.253 61.0591C461.905 60.9939 461.692 60.7806 461.616 60.4192C461.366 60.1507 461.101 59.9019 460.82 59.6726C460.727 59.2771 460.497 58.9927 460.13 58.8194C459.84 58.3466 459.54 57.8844 459.227 57.4329C458.946 57.2036 458.681 56.9547 458.431 56.6863C454.353 51.5182 450.195 46.3988 445.958 41.3282C445.935 41.1748 445.882 41.0326 445.799 40.9016C445.233 40.3023 444.666 39.6979 444.1 39.0884C444.123 39.026 444.158 38.9726 444.207 38.9285C443.578 38.2985 442.976 37.6408 442.402 36.9554C442.424 36.8929 442.459 36.8396 442.508 36.7954C442.155 36.4754 441.8 36.1555 441.446 35.8355C441.495 35.7914 441.53 35.738 441.553 35.6755C441.305 35.4622 441.057 35.2489 440.81 35.0356C440.52 34.5628 440.219 34.1007 439.907 33.6491C439.334 33.1974 438.856 32.6642 438.474 32.0493C438.58 21.3883 438.615 10.723 438.58 0.0532227Z" fill="white"/>
<path opacity="0.988" fill-rule="evenodd" clip-rule="evenodd" d="M489.004 0.0532227C515.967 0.0532227 542.931 0.0532227 569.894 0.0532227C569.894 6.59464 569.894 13.1361 569.894 19.6775C542.931 19.6775 515.967 19.6775 489.004 19.6775C489.004 13.1361 489.004 6.59464 489.004 0.0532227Z" fill="white"/>
<path opacity="0.988" fill-rule="evenodd" clip-rule="evenodd" d="M692.079 3.03967C692.181 2.99138 692.269 2.92027 692.344 2.82636C692.82 1.94185 693.298 1.05307 693.777 0.160022C700.323 0.0533726 706.869 0.0178214 713.416 0.0533684C713.466 0.500354 713.324 0.855866 712.991 1.1199C711.088 4.62316 709.142 8.01829 707.153 11.3053C707.202 11.3495 707.237 11.4028 707.259 11.4653C706.364 12.7997 705.551 14.1861 704.818 15.6248C704.727 15.7338 704.621 15.8226 704.499 15.8914C704.548 15.9356 704.583 15.9889 704.605 16.0514C702.253 20.0192 699.989 24.0009 697.811 27.9966C694.225 34.1939 690.686 40.4154 687.196 46.661C686.956 46.7511 686.885 46.8933 686.983 47.0876C686.214 48.3852 685.471 49.7005 684.754 51.0338C684.65 51.0847 684.562 51.1557 684.489 51.2471C684.297 51.9192 683.96 52.5058 683.48 53.0069C683.529 53.051 683.564 53.1044 683.586 53.1669C683.122 53.6198 682.803 54.1709 682.631 54.82C681.422 56.7468 680.254 58.7021 679.128 60.686C678.968 61.3312 678.649 61.8645 678.173 62.2858C678.221 62.3299 678.256 62.3832 678.279 62.4457C676.871 64.7425 675.508 67.1244 674.192 69.5915C674.068 69.716 673.944 69.8404 673.82 69.9648C673.855 70.0003 673.891 70.036 673.926 70.0715C671.591 73.9827 669.344 77.9467 667.185 81.9634C667.061 82.0878 666.938 82.2122 666.814 82.3366C666.849 82.3722 666.885 82.4078 666.92 82.4433C664.643 86.2482 662.45 90.1054 660.338 94.0152C660.146 94.2159 659.969 94.4293 659.808 94.6551C659.83 94.7176 659.865 94.771 659.914 94.8151C659.437 95.3631 659.084 95.9852 658.852 96.6816C658.68 96.8344 658.538 97.0121 658.428 97.2148C654.856 97.074 651.281 97.074 647.706 97.2148C647.719 97.0032 647.648 96.8255 647.494 96.6816C647.516 96.6191 647.551 96.5657 647.6 96.5216C647.368 96.3778 647.191 96.1822 647.069 95.935C646.406 94.7801 645.769 93.6069 645.158 92.4154C644.918 92.3253 644.847 92.1831 644.946 91.9888C644.329 91.0377 643.727 90.0778 643.141 89.1092C643.164 89.0467 643.199 88.9933 643.247 88.9492C641.718 86.5575 640.285 84.0511 638.948 81.4301C638.63 80.8622 638.258 80.3289 637.834 79.8303C637.856 79.7678 637.891 79.7145 637.94 79.6703C635.72 75.9395 633.526 72.0821 631.358 68.0984C631.166 67.8977 630.989 67.6844 630.827 67.4585C630.85 67.396 630.885 67.3426 630.933 67.2985C629.506 64.9869 628.126 62.5872 626.793 60.0994C626.687 59.9927 626.581 59.8861 626.475 59.7794C626.497 59.7169 626.532 59.6636 626.581 59.6194C626.368 59.263 626.12 58.9252 625.838 58.6062C625.237 57.6126 624.688 56.5816 624.193 55.5133C622.694 53.0076 621.226 50.4124 619.787 47.7275C619.506 47.6438 619.435 47.4838 619.575 47.2476C619.318 46.922 619.071 46.5842 618.832 46.2344C618.697 45.7308 618.45 45.3042 618.089 44.9545C617.903 44.6347 617.762 44.2969 617.664 43.9413C617.332 43.5656 617.049 43.1568 616.815 42.7148C616.914 42.5205 616.842 42.3783 616.603 42.2882C616.45 42.0157 616.325 41.7314 616.231 41.435C616.196 41.4705 616.16 41.5061 616.125 41.5416C615.828 40.9497 615.544 40.3454 615.276 39.7285C614.659 38.8558 614.145 37.967 613.736 37.0622C613.665 37.0267 613.595 36.991 613.524 36.9555C613.138 36.1242 612.731 35.3066 612.303 34.5025C612 34.1603 611.734 33.7871 611.507 33.3826C610.168 30.8216 608.717 28.2796 607.155 25.7569C607.177 25.6944 607.212 25.6411 607.261 25.5969C606.025 23.7376 604.911 21.8 603.917 19.7843C603.599 19.2164 603.227 18.6831 602.802 18.1845C602.825 18.122 602.86 18.0687 602.909 18.0245C602.299 17.0524 601.697 16.0747 601.104 15.0915C601.126 15.029 601.161 14.9757 601.21 14.9316C600.874 14.4069 600.52 13.8915 600.148 13.3851C600.171 13.3226 600.206 13.2692 600.255 13.2251C599.018 11.3633 597.903 9.4258 596.911 7.41247C596.592 6.8445 596.221 6.31123 595.796 5.81266C595.818 5.75017 595.853 5.69684 595.902 5.65268C594.957 4.11804 594.038 2.57157 593.142 1.01325C593.165 0.950747 593.2 0.89742 593.248 0.853271C592.932 0.681391 592.791 0.414757 592.824 0.0533684C599.405 0.0533684 605.987 0.0533684 612.569 0.0533684C612.538 0.244066 612.574 0.421822 612.675 0.586637C626.239 23.2048 639.791 45.8153 653.332 68.4184C653.617 68.5431 653.829 68.4543 653.969 68.1517C659.032 59.3229 664.18 50.5595 669.415 41.8616C676.558 29.5337 683.776 17.2685 691.07 5.06609C691.49 4.42641 691.826 3.75093 692.079 3.03967Z" fill="white"/>
<path opacity="0.981" fill-rule="evenodd" clip-rule="evenodd" d="M63.6401 45.1678C63.6231 45.7081 63.6762 46.2414 63.7993 46.7676C63.8433 46.7188 63.8963 46.6832 63.9585 46.6609C64.3182 46.8555 64.7074 46.9621 65.1263 46.9809C65.2902 46.95 65.4317 46.8789 65.5509 46.7676C65.6577 46.8143 65.6577 46.8853 65.5509 46.9809C66.0725 47.193 66.6033 47.2641 67.1432 47.1942C67.1683 47.2739 67.2037 47.3627 67.2494 47.4608C67.7195 47.5648 68.1619 47.7248 68.5763 47.9408C68.6203 47.892 68.6733 47.8564 68.7355 47.8341C69.2309 48.0875 69.7439 48.3008 70.2748 48.474C71.6256 46.8614 72.8995 45.1905 74.0964 43.4613C74.5105 42.9343 74.9351 42.9343 75.3702 43.4613C75.4056 43.4258 75.441 43.3902 75.4764 43.3547C75.9647 43.7067 76.4601 43.9557 76.9626 44.1012C77.6603 44.6197 78.4034 45.153 79.1918 45.701C79.2358 45.6523 79.2888 45.6167 79.3511 45.5944C79.4572 45.7366 79.5634 45.8788 79.6695 46.021C78.7708 48.0019 77.9039 49.9928 77.0687 51.9936C76.9979 52.1358 76.9979 52.2781 77.0687 52.4202C78.6492 53.7234 80.1707 55.2522 81.6334 57.0063C82.0116 57.0954 82.3832 57.0421 82.748 56.8463C82.6589 56.6687 82.7119 56.6509 82.9073 56.793C83.2015 56.5519 83.5376 56.3919 83.9157 56.3131C83.7888 56.2433 83.7888 56.19 83.9157 56.1531C83.9865 56.1886 84.0572 56.2242 84.128 56.2598C84.705 55.9092 85.2888 55.6604 85.8796 55.5132C86.5985 55.1478 87.324 54.7923 88.0558 54.4466C89.2453 55.9987 90.236 57.6873 91.0281 59.5127C90.6944 59.8656 90.3406 60.2034 89.9666 60.5259C88.6251 61.4479 87.3158 62.4078 86.0388 63.4055C86.0035 63.5477 85.968 63.69 85.9327 63.8322C85.8418 63.4502 85.7357 63.4325 85.6142 63.7788C86.4774 65.9294 87.0436 68.1336 87.3127 70.3914C87.4527 70.565 87.5942 70.5472 87.7373 70.338C87.8643 70.3749 87.8643 70.4283 87.7373 70.498C88.2367 70.6693 88.732 70.7226 89.2235 70.658C89.6098 70.7461 89.9991 70.8172 90.3912 70.8713C90.624 70.8899 90.8187 70.8187 90.9751 70.658C91.0263 70.7591 91.0439 70.8658 91.0281 70.978C91.3466 70.978 91.6651 70.978 91.9835 70.978C92.1208 71.0481 92.28 71.0838 92.4612 71.0846C92.7109 71.1054 92.9232 71.0343 93.0982 70.8713C93.1494 70.9724 93.1671 71.0791 93.1512 71.1913C93.5051 71.1913 93.859 71.1913 94.2128 71.1913C94.3543 73.2177 94.3543 75.2441 94.2128 77.2705C93.8572 77.2529 93.5033 77.2707 93.1512 77.3238C93.2798 77.4191 93.2798 77.5079 93.1512 77.5905C92.9974 77.4713 92.8205 77.4002 92.6205 77.3772C92.3214 77.4558 92.0207 77.5269 91.7181 77.5905C91.1396 77.5203 90.5557 77.5736 89.9666 77.7505C90.0891 77.8479 90.0714 77.9368 89.9135 78.0171C89.7699 77.8887 89.593 77.8175 89.3827 77.8038C88.6832 77.8425 88.0286 77.9492 87.4189 78.1237C87.0574 80.3841 86.4558 82.5705 85.6142 84.6829C85.8479 84.9005 86.0779 85.1316 86.3042 85.3762C86.4995 85.234 86.5526 85.2518 86.4635 85.4295C87.9244 86.4986 89.4105 87.6185 90.922 88.7891C91.0402 88.9195 91.058 89.0617 90.9751 89.2157C90.1349 90.9407 89.1619 92.5761 88.0558 94.1218C87.622 93.8594 87.1797 93.6106 86.7288 93.3752C86.6935 93.4107 86.658 93.4464 86.6227 93.4819C86.0756 93.2087 85.5271 92.9243 84.9773 92.6286C84.9151 92.6509 84.862 92.6866 84.8181 92.7353C84.5911 92.5274 84.3434 92.3496 84.075 92.202C83.3545 92.0004 82.6291 91.716 81.8988 91.3488C80.7157 92.6919 79.4772 93.9894 78.1833 95.2416C77.7852 95.3926 77.4844 95.6592 77.281 96.0416C77.2102 95.8994 77.1395 95.8994 77.0687 96.0416C77.041 96.4692 77.1295 96.8781 77.3341 97.2681C78.1019 99.0306 78.8804 100.79 79.6695 102.547C78.3596 103.467 77.0503 104.284 75.7418 105C75.339 105.149 74.9498 105.327 74.5741 105.534C73.3062 103.885 72.05 102.214 70.8056 100.521C70.6212 100.336 70.4089 100.193 70.1686 100.094C69.1328 100.463 68.1243 100.801 67.1432 101.108C67.2718 101.203 67.2718 101.292 67.1432 101.374C67.0553 101.277 66.9492 101.206 66.8247 101.161C66.473 101.227 66.137 101.333 65.8163 101.481C65.7723 101.432 65.7192 101.397 65.657 101.374C65.6042 101.492 65.5688 101.599 65.5509 101.694C64.9489 101.618 64.3473 101.653 63.7462 101.801C63.3826 104.094 63.1349 106.405 63.0032 108.733C62.6303 108.675 62.3119 108.745 62.0478 108.947C61.977 108.947 61.9063 108.947 61.8354 108.947C61.2558 108.805 60.6366 108.733 59.9777 108.733C59.3188 108.733 58.6996 108.805 58.12 108.947C58.0139 108.947 57.9077 108.947 57.8015 108.947C57.8868 108.849 57.9045 108.742 57.8546 108.627C57.566 108.727 57.2653 108.763 56.9523 108.733C56.8704 106.924 56.658 105.147 56.3154 103.401C56.3246 102.863 56.2893 102.33 56.2092 101.801C55.7322 101.734 55.2545 101.663 54.7761 101.588C54.646 101.603 54.5221 101.639 54.4046 101.694C54.3866 101.599 54.3513 101.492 54.2984 101.374C54.2362 101.397 54.1831 101.432 54.1392 101.481C53.8 101.334 53.4462 101.228 53.0776 101.161C52.9438 101.189 52.8376 101.26 52.7592 101.374C52.7079 101.273 52.6903 101.166 52.7061 101.054C52.4946 101.073 52.3178 101.001 52.1753 100.841C51.9995 101.003 51.8756 100.968 51.8038 100.734C51.7684 100.77 51.733 100.805 51.6976 100.841C51.0749 100.624 50.4733 100.375 49.893 100.094C49.7417 100.17 49.5825 100.188 49.4153 100.148C49.2562 100.396 49.0792 100.627 48.8845 100.841C48.737 100.99 48.6308 101.168 48.566 101.374C48.1383 101.77 47.7845 102.232 47.5045 102.761C46.9448 103.485 46.3964 104.232 45.8591 105C45.6776 105.201 45.483 105.379 45.2752 105.534C43.4849 104.737 41.8219 103.742 40.2859 102.547C41.1805 100.474 42.0651 98.3939 42.9398 96.3082C41.6614 95.1318 40.3698 93.8698 39.0652 92.522C38.7794 92.1815 38.514 91.8261 38.269 91.4554C38.0081 91.3798 37.778 91.3798 37.579 91.4554C35.6405 92.3477 33.712 93.2365 31.7935 94.1218C30.6123 92.4955 29.6215 90.7535 28.8212 88.8958C29.7574 88.1523 30.7481 87.4057 31.7935 86.656C32.6133 85.9743 33.4625 85.3344 34.3412 84.7363C33.4311 82.5824 32.8296 80.3427 32.5366 78.0171C32.3251 77.9987 32.1483 78.0699 32.0058 78.2304C31.8773 78.1479 31.8773 78.059 32.0058 77.9638C31.5281 77.9104 31.0504 77.8571 30.5727 77.8038C30.3551 77.8242 30.1605 77.8953 29.9889 78.0171C29.8948 77.9291 29.8595 77.8224 29.8827 77.6971C29.5591 77.6057 29.2406 77.6057 28.9273 77.6971C28.8539 77.6411 28.8008 77.57 28.7681 77.4838C28.4713 77.5597 28.1704 77.6308 27.8658 77.6971C27.7717 77.6091 27.7364 77.5025 27.7596 77.3772C27.0868 77.3487 26.4145 77.3132 25.7427 77.2705C25.5774 76.2946 25.5066 75.2992 25.5304 74.2842C25.5084 73.2341 25.5791 72.2031 25.7427 71.1913C26.0983 71.2089 26.4521 71.191 26.8042 71.1379C26.6773 71.0682 26.6773 71.0149 26.8042 70.978C26.9924 71.0406 27.187 71.0761 27.3881 71.0846C28.2188 70.9879 29.0504 70.899 29.8827 70.818C29.9358 70.7646 29.9889 70.7113 30.042 70.658C30.3554 70.6497 30.6739 70.6852 30.9974 70.7646C31.2882 70.6812 31.5891 70.6279 31.8997 70.6047C31.9577 70.506 32.0284 70.4172 32.112 70.338C32.2432 70.4176 32.3848 70.4531 32.5366 70.4447C32.8421 68.1494 33.4437 65.9452 34.3412 63.8322C33.1486 62.9331 31.9278 61.9732 30.6789 60.9525C30.6435 60.988 30.6081 61.0237 30.5727 61.0592C30.2691 60.799 29.986 60.5147 29.7235 60.2059C29.5282 60.3481 29.4751 60.3303 29.5643 60.1526C29.2781 60.0085 29.0303 59.813 28.8212 59.566C29.5947 57.7265 30.5856 56.02 31.7935 54.4466C33.8232 55.3177 35.8048 56.1887 37.7382 57.0597C37.9152 57.1308 38.092 57.1308 38.269 57.0597C39.5789 55.3169 41.1006 53.7882 42.8337 52.4736C42.893 52.3962 42.9284 52.3074 42.9398 52.2069C42.0966 50.128 41.212 48.066 40.2859 46.021C40.4737 45.8016 40.686 45.6061 40.9229 45.4344C42.2933 44.5116 43.6734 43.7296 45.0629 43.088C45.234 43.0112 45.3933 43.0289 45.5406 43.1414C46.7937 44.9307 48.0852 46.6905 49.4153 48.4207C50.1067 48.3019 50.7791 48.1063 51.4322 47.8341C51.4464 47.4719 51.5525 47.4364 51.7507 47.7275C52.1747 47.6698 52.5285 47.492 52.8123 47.1942C52.9127 47.2461 53.0188 47.2817 53.1307 47.3009C53.5483 47.1782 53.973 47.0893 54.4046 47.0342C54.276 46.939 54.276 46.8501 54.4046 46.7676C54.5073 46.8731 54.6312 46.9442 54.7761 46.9809C55.1519 46.9315 55.5235 46.8604 55.8908 46.7676C55.8393 46.489 55.9278 46.489 56.1561 46.7676C56.4469 44.4566 56.7123 42.1457 56.9523 39.8351C57.3079 39.8527 57.6617 39.8349 58.0139 39.7818C57.8914 39.6843 57.9091 39.5954 58.0669 39.5151C58.6603 39.6547 59.2795 39.7258 59.9247 39.7284C60.5799 39.7238 61.2169 39.6526 61.8354 39.5151C61.9295 39.6031 61.9649 39.7098 61.9416 39.8351C62.2954 39.8351 62.6493 39.8351 63.0032 39.8351C63.1101 41.5159 63.2693 43.2223 63.4809 44.9545C63.5104 45.0522 63.5634 45.1232 63.6401 45.1678ZM74.8925 60.4192C78.8581 64.7281 80.6274 69.8119 80.2003 75.6707C79.7762 81.0879 77.6531 85.6206 73.831 89.269C73.7302 89.3349 73.6418 89.3172 73.5656 89.2157C73.402 89.5943 73.1544 89.9143 72.8225 90.1756C72.7872 90.1401 72.7517 90.1045 72.7164 90.069C72.5012 90.3113 72.2711 90.5424 72.0263 90.7622C71.8926 90.8809 71.7687 90.8987 71.6548 90.8155C71.6035 90.9166 71.5859 91.0233 71.6017 91.1355C70.2238 91.9336 68.8438 92.6624 67.4617 93.3219C67.0752 93.4572 66.6859 93.5817 66.294 93.6952C66.2232 93.6597 66.1525 93.624 66.0817 93.5885C65.8799 93.8983 65.6145 94.005 65.2855 93.9085C64.9021 94.2296 64.5129 94.2651 64.1178 94.0151C64.0665 94.1162 64.0489 94.2229 64.0647 94.3351C63.8777 94.3503 63.7007 94.3147 63.5339 94.2284C63.2942 94.5773 63.0288 94.6128 62.7378 94.3351C62.4034 94.6578 62.0142 94.729 61.5701 94.5484C61.054 94.682 60.5233 94.7531 59.9777 94.7617C59.4322 94.7531 58.9014 94.682 58.3854 94.5484C58.0219 94.6377 57.6681 94.6732 57.3239 94.6551C57.2974 94.5352 57.2443 94.4285 57.1646 94.3351C56.873 94.6264 56.6253 94.5909 56.4215 94.2284C55.7744 94.3225 55.1551 94.2159 54.5638 93.9085C54.4819 93.9239 54.4111 93.9595 54.3515 94.0151C54.2897 93.6773 54.1836 93.6417 54.033 93.9085C53.818 93.7382 53.5703 93.6315 53.29 93.5885C53.1734 93.4942 53.1203 93.3876 53.1307 93.2686C53.0599 93.3397 52.9892 93.4107 52.9184 93.4819C51.4098 92.8848 50.0298 92.1738 48.7784 91.3488C42.8996 87.3129 39.8211 81.6069 39.5429 74.2309C39.5592 73.3576 39.6123 72.4866 39.7021 71.6179C39.7427 71.5586 39.7958 71.5231 39.8613 71.5112C39.9837 69.8465 40.3553 68.2467 40.9759 66.7118C42.6307 62.8914 45.0015 59.8339 48.0883 57.5396C48.2808 57.6579 48.3692 57.5867 48.3537 57.3263C48.705 57.2472 49.0058 57.0694 49.2561 56.793C49.4514 56.9352 49.5045 56.9174 49.4153 56.7397C49.6739 56.6223 49.9039 56.4623 50.1053 56.2598C50.1492 56.3085 50.2023 56.3441 50.2645 56.3664C51.0898 55.8126 51.9567 55.3504 52.8653 54.9799C53.0937 55.2585 53.1822 55.2585 53.1307 54.9799C53.4052 54.7724 53.6529 54.7724 53.8738 54.9799C54.0024 54.8974 54.0024 54.8085 53.8738 54.7133C54.5893 54.4358 55.3324 54.2402 56.1031 54.1267C56.3595 54.2329 56.6072 54.1973 56.8462 54.02C56.9941 54.0329 57.1357 54.0684 57.2708 54.1267C57.3977 54.0898 57.3977 54.0365 57.2708 53.9667C57.6662 53.8856 58.0555 53.9035 58.4385 54.02C58.5467 53.8934 58.6705 53.7868 58.81 53.7001C59.5677 53.8409 60.3284 53.8409 61.0924 53.7001C61.216 53.8058 61.3399 53.9124 61.4639 54.02C61.8661 53.9068 62.2731 53.889 62.6847 53.9667C62.5297 54.0532 62.4944 54.1421 62.5785 54.2333C62.7221 54.0844 62.899 54.0133 63.1093 54.02C63.4244 54.0906 63.7428 54.1261 64.0647 54.1267C64.0805 54.5131 64.2044 54.5487 64.4362 54.2333C64.971 54.4397 65.5195 54.5997 66.0817 54.7133C65.9531 54.8085 65.9531 54.8974 66.0817 54.9799C66.1525 54.9088 66.2232 54.8377 66.294 54.7666C66.7137 54.8832 67.1029 55.061 67.4617 55.2999C67.5239 55.2776 67.577 55.242 67.6209 55.1932C67.8746 55.3802 68.14 55.558 68.4171 55.7265C68.4793 55.7042 68.5324 55.6686 68.5763 55.6198C68.7796 55.8735 69.045 56.0334 69.3725 56.0998C69.2833 56.2775 69.3364 56.2953 69.5317 56.1531C70.4918 56.8094 71.5002 57.4672 72.5571 58.1262C72.9971 58.4887 73.3864 58.8976 73.7248 59.3527C73.787 59.3304 73.8401 59.2948 73.8841 59.2461C74.2731 59.6084 74.6093 59.9993 74.8925 60.4192Z" fill="white"/>
<path opacity="0.991" fill-rule="evenodd" clip-rule="evenodd" d="M489.004 44.3147C515.967 44.3147 542.931 44.3147 569.894 44.3147C569.894 50.5717 569.894 56.8287 569.894 63.0857C542.931 63.0857 515.967 63.0857 489.004 63.0857C489.004 56.8287 489.004 50.5717 489.004 44.3147Z" fill="white"/>
<path opacity="0.987" fill-rule="evenodd" clip-rule="evenodd" d="M713.947 45.7012C713.947 66.7831 713.947 87.8649 713.947 108.947C706.445 108.947 698.944 108.947 691.442 108.947C691.477 101.014 691.442 93.0865 691.336 85.163C691.547 84.5954 691.866 84.0976 692.291 83.6699C692.269 83.6074 692.234 83.554 692.185 83.5099C693.968 80.5432 695.667 77.5746 697.281 74.6043C699.649 70.5625 701.984 66.4385 704.287 62.2325C704.527 62.1424 704.598 62.0002 704.499 61.8059C704.698 61.4172 704.946 61.0617 705.242 60.7393C705.462 60.0474 705.816 59.443 706.304 58.9262C706.281 58.8637 706.246 58.8104 706.198 58.7662C707.647 56.4265 709.027 54.0268 710.338 51.5671C710.442 51.5162 710.53 51.4452 710.603 51.3538C710.795 50.6817 711.132 50.0951 711.611 49.594C711.563 49.5499 711.528 49.4965 711.505 49.434C711.991 48.9201 712.346 48.3158 712.567 47.6209C712.814 47.2655 713.063 46.9099 713.31 46.5544C713.211 46.3601 713.282 46.2179 713.522 46.1278C713.621 46.001 713.656 45.8588 713.628 45.7012C713.735 45.7012 713.841 45.7012 713.947 45.7012Z" fill="white"/>
<path opacity="0.985" fill-rule="evenodd" clip-rule="evenodd" d="M615.223 108.947C607.721 108.947 600.22 108.947 592.718 108.947C592.718 88.0426 592.718 67.1385 592.718 46.2344C592.824 46.2344 592.93 46.2344 593.036 46.2344C593.018 46.4468 593.089 46.6245 593.248 46.7676C593.15 46.962 593.221 47.1041 593.461 47.1943C594.445 48.9627 595.4 50.7048 596.327 52.4203C596.398 52.4558 596.468 52.4914 596.539 52.5269C596.926 53.3583 597.332 54.1759 597.76 54.98C598.064 55.3221 598.329 55.6954 598.556 56.0998C598.507 56.144 598.472 56.1973 598.45 56.2598C598.666 56.4409 598.843 56.6542 598.981 56.8997C600.235 59.2481 601.543 61.5234 602.909 63.7256C602.886 63.7881 602.851 63.8414 602.802 63.8855C602.973 64.1033 603.133 64.3345 603.28 64.5788C603.315 64.5433 603.351 64.5077 603.386 64.4721C603.525 64.8041 603.648 65.1418 603.758 65.4854C604.344 66.4932 604.946 67.4887 605.562 68.4717C605.514 68.5158 605.479 68.5691 605.456 68.6316C605.672 68.8127 605.849 69.026 605.987 69.2716C607.47 71.9678 608.991 74.6341 610.552 77.2706C612.026 80.0428 613.582 82.7625 615.223 85.4296C615.225 93.226 615.225 101.065 615.223 108.947Z" fill="white"/>
<path opacity="0.993" fill-rule="evenodd" clip-rule="evenodd" d="M387.201 108.947C379.417 108.947 371.631 108.947 363.847 108.947C363.812 88.7534 363.847 68.5604 363.953 48.3674C368.111 53.5962 372.341 58.7866 376.639 63.9389C376.662 64.0922 376.715 64.2344 376.798 64.3655C377.364 64.9648 377.931 65.5692 378.497 66.1786C378.474 66.2411 378.439 66.2944 378.39 66.3386C379.019 66.9686 379.621 67.6262 380.195 68.3117C380.173 68.3742 380.138 68.4275 380.089 68.4716C380.556 68.8085 380.874 69.1817 381.044 69.5915C381.272 69.8301 381.52 70.0434 381.787 70.2314C382.077 70.7042 382.378 71.1663 382.69 71.6179C383.356 72.2607 383.94 72.9718 384.441 73.751C384.908 74.3141 385.404 74.8474 385.927 75.3508C386.366 75.9776 386.825 76.582 387.307 77.1639C387.201 87.7539 387.166 98.3481 387.201 108.947Z" fill="white"/>
<path opacity="0.994" fill-rule="evenodd" clip-rule="evenodd" d="M569.894 108.947C542.931 108.947 515.967 108.947 489.004 108.947C489.004 102.441 489.004 95.9348 489.004 89.429C515.967 89.429 542.931 89.429 569.894 89.429C569.894 95.9348 569.894 102.441 569.894 108.947Z" fill="white"/>
</g>
<defs>
<clipPath id="clip0_227_15986">
<rect width="714" height="109" fill="white"/>
</clipPath>
</defs>
</svg>
